# xmcd
#
# Track frame offsets:
# 150
# 14687
# 26642
# 36638
# 52541
# 68737
# 81747
# 93606
# 108040
# 118729
# 138527
# 150052
# 162557
# 172287
# 186604
# 201597
# 214402
# 229684
# 239089
# 257200
# 283630
#
# Disc length: 4440 seconds
#
#
# Revision: 1
# Processed by: cddbd v1.5.2PL0 Copyright (c) Steve Scherf et al.
# Submitted via: FreeRIP 2.951 
#
DISCID=46115615
DTITLE=The Best Country Album In The World Ever - Various Side 1
DYEAR=2005
DGENRE=Country
TTITLE0=Glen Campbell - Rhinestone Cowboy
TTITLE1=Tammy Wynette - Stand By Your Man
TTITLE2=George Hamilton IV - Abilene
TTITLE3=Billie Jo Spears - Blanket On The Ground
TTITLE4=Kenny Rogers - Lucille
TTITLE5=Anne Murray - He Still Thinks I Care
TTITLE6=Charlie Rich - The Most Beautiful Girl In The World
TTITLE7=Jeannie C Riley - Harper Valley PTA
TTITLE8=Jim Reeves - He'll Have To Go
TTITLE9=Marty Robbins - El Paso
TTITLE10=Sammi Smiith - Help Me Make It Through The Night
TTITLE11=Bobby Bare - Detroit City
TTITLE12=Ned Miller - From A Jack To A King
TTITLE13=Bellamy Brothers - If I Said You Had A Beautiful Body
TTITLE14=Kenny Dale - Bluest Heartache Of The Year
TTITLE15=Johnny Tillotson - It Keeps Right A-Hurting
TTITLE16=Patsy Riggir - Beautiful Lady
TTITLE17=John Grennel - Welcome To Our World
TTITLE18=Don Williams - I Believe In You
TTITLE19=Cristy Lane - One Day At A Time
TTITLE20= -
EXTD=
EXTT0=
EXTT1=
EXTT2=
EXTT3=
EXTT4=
EXTT5=
EXTT6=
EXTT7=
EXTT8=
EXTT9=
EXTT10=
EXTT11=Detoit City
EXTT12=
EXTT13=
EXTT14=
EXTT15=
EXTT16=
EXTT17=
EXTT18=
EXTT19=
EXTT20=
PLAYORDER=
